<?xml version="1.0" encoding="iso-8859-1"?>
<!-- Generator: Adobe Illustrator 19.0.0, SVG Export Plug-In . SVG Version: 6.00 Build 0)  -->
<svg version="1.1" id="Capa_1" xmlns="http://www.w3.org/2000/svg" xmlns:xlink="http://www.w3.org/1999/xlink" x="0px" y="0px"
	 viewBox="0 0 490 490" style="enable-background:new 0 0 490 490;" xml:space="preserve">
<g>
	<circle cx="157.652" cy="175.214" r="42.642"/>
	<circle cx="332.351" cy="175.214" r="42.642"/>
	<polygon points="261.924,265.262 231.299,265.262 231.299,352.038 291.233,352.038 291.233,321.413 261.924,321.413 	"/>
	<path d="M420.911,0H69.089C30.995,0,0.004,30.999,0.004,69.086v351.829C0.004,459.001,30.995,490,69.089,490h351.821
		c38.087,0,69.086-30.999,69.086-69.086V69.086C489.996,30.999,458.997,0,420.911,0z M459.371,420.914
		c0,21.204-17.257,38.461-38.461,38.461H69.089c-21.204,0-38.461-17.257-38.461-38.461V69.086c0-21.204,17.256-38.461,38.461-38.461
		h351.821c21.204,0,38.461,17.257,38.461,38.461V420.914z"/>
</g>
<g>
</g>
<g>
</g>
<g>
</g>
<g>
</g>
<g>
</g>
<g>
</g>
<g>
</g>
<g>
</g>
<g>
</g>
<g>
</g>
<g>
</g>
<g>
</g>
<g>
</g>
<g>
</g>
<g>
</g>
</svg>
