<?xml version="1.0" encoding="iso-8859-1"?>
<!-- Generator: Adobe Illustrator 19.0.0, SVG Export Plug-In . SVG Version: 6.00 Build 0)  -->
<svg version="1.1" id="Capa_1" xmlns="http://www.w3.org/2000/svg" xmlns:xlink="http://www.w3.org/1999/xlink" x="0px" y="0px"
	 viewBox="0 0 490 490" style="enable-background:new 0 0 490 490;" xml:space="preserve">
<g>
	<path d="M119.39,340.015l18.333,24.539c4.411-3.26,108.773-78.91,214.584,0L370.61,340
		C246.211,247.183,120.646,339.088,119.39,340.015z"/>
	<path d="M159.744,236.096c23.55,0,42.642-19.092,42.642-42.642c0-10.461-3.913-19.915-10.164-27.334h29.405v-30.625H97.856v30.625
		h29.409c-6.251,7.419-10.164,16.873-10.164,27.334C117.102,217.004,136.194,236.096,159.744,236.096z"/>
	<path d="M268.372,166.12h31.504c-6.251,7.419-10.164,16.873-10.164,27.334c0,23.55,19.091,42.642,42.642,42.642
		c23.55,0,42.641-19.092,42.641-42.642c0-10.461-3.913-19.915-10.164-27.334h27.327v-30.625H268.372V166.12z"/>
	<path d="M420.914,0H69.086C30.999,0,0,30.999,0,69.086v351.829C0,459.001,30.999,490,69.086,490h351.829
		C459.001,490,490,459.001,490,420.914V69.086C490,30.999,459.001,0,420.914,0z M459.375,420.914
		c0,21.204-17.257,38.461-38.461,38.461H69.086c-21.204,0-38.461-17.257-38.461-38.461V69.086c0-21.204,17.256-38.461,38.461-38.461
		h351.829c21.204,0,38.461,17.257,38.461,38.461V420.914z"/>
</g>
<g>
</g>
<g>
</g>
<g>
</g>
<g>
</g>
<g>
</g>
<g>
</g>
<g>
</g>
<g>
</g>
<g>
</g>
<g>
</g>
<g>
</g>
<g>
</g>
<g>
</g>
<g>
</g>
<g>
</g>
</svg>
