<?xml version="1.0" encoding="iso-8859-1"?>
<!-- Generator: Adobe Illustrator 19.0.0, SVG Export Plug-In . SVG Version: 6.00 Build 0)  -->
<svg version="1.1" id="Capa_1" xmlns="http://www.w3.org/2000/svg" xmlns:xlink="http://www.w3.org/1999/xlink" x="0px" y="0px"
	 viewBox="0 0 490 490" style="enable-background:new 0 0 490 490;" xml:space="preserve">
<g>
	<circle cx="339.598" cy="175.533" r="42.642"/>
	<path d="M137.723,301.166l-18.333,24.539c0.838,0.613,56.644,41.466,130.53,41.466c37.205,0,79.015-10.363,120.691-41.451
		l-18.303-24.554C246.435,380.106,142.104,304.426,137.723,301.166z"/>
	<path d="M420.914,0H69.086C30.999,0,0,30.999,0,69.086v351.829C0,459.001,30.999,490,69.086,490h351.829
		C459.001,490,490,459.001,490,420.914V69.086C490,30.999,459.001,0,420.914,0z M69.086,30.625h237.888
		c-17.214,20.996-42.467,48.109-75.563,74.894c-9.504-12.958-26.371-19.421-42.638-14.693l-69.644,20.242
		c-20.778,6.039-32.837,27.98-26.798,48.758l6.451,22.196c-21.246,7.926-44.065,14.334-68.157,19.111V69.086
		C30.625,47.882,47.881,30.625,69.086,30.625z M459.375,420.914c0,21.204-17.257,38.461-38.461,38.461H69.086
		c-21.204,0-38.461-17.257-38.461-38.461V232.46c27.331-4.961,52.94-11.99,76.812-20.657l3.834,13.19
		c6.038,20.778,27.98,32.837,48.758,26.799l69.643-20.242c20.778-6.039,32.837-27.98,26.799-48.758l-13.459-46.307
		c50.754-39.566,85.039-81.007,103.103-105.86h74.8c21.204,0,38.461,17.257,38.461,38.461V420.914z"/>
</g>
<g>
</g>
<g>
</g>
<g>
</g>
<g>
</g>
<g>
</g>
<g>
</g>
<g>
</g>
<g>
</g>
<g>
</g>
<g>
</g>
<g>
</g>
<g>
</g>
<g>
</g>
<g>
</g>
<g>
</g>
</svg>
