<?xml version="1.0" encoding="iso-8859-1"?>
<!-- Generator: Adobe Illustrator 19.0.0, SVG Export Plug-In . SVG Version: 6.00 Build 0)  -->
<svg xmlns="http://www.w3.org/2000/svg" xmlns:xlink="http://www.w3.org/1999/xlink" version="1.1" id="Capa_1" x="0px" y="0px" viewBox="0 0 490 490" style="enable-background:new 0 0 490 490;" xml:space="preserve" width="512px" height="512px">
<g>
	<polygon points="260.387,301.076 229.77,301.076 229.77,387.837 289.711,387.837 289.711,357.212 260.387,357.212  " fill="#AFABAB"/>
	<path d="M69.086,490h351.829C459.001,490,490,459.001,490,420.914V69.086C490,30.999,459.001,0,420.914,0H69.086   C30.991,0,0,30.999,0,69.086v351.829C0,459.001,30.991,490,69.086,490z M420.914,459.375H69.086   c-21.204,0-38.461-17.257-38.461-38.461V208.394h58.711c7.154,31.001,34.791,54.17,67.965,54.17   c33.175,0,60.812-23.17,67.966-54.17h39.466c7.154,31.001,34.791,54.17,67.966,54.17c33.174,0,60.811-23.17,67.965-54.17h58.711   v212.521C459.375,442.118,442.118,459.375,420.914,459.375z M69.086,30.625h351.829c21.204,0,38.461,17.257,38.461,38.461v108.683   h-58.457c-6.84-31.424-34.744-54.989-68.218-54.989s-61.379,23.565-68.219,54.989h-38.96c-6.84-31.424-34.745-54.989-68.219-54.989   s-61.378,23.565-68.218,54.989H30.625V69.086C30.625,47.882,47.882,30.625,69.086,30.625z" fill="#AFABAB"/>
</g>
<g>
</g>
<g>
</g>
<g>
</g>
<g>
</g>
<g>
</g>
<g>
</g>
<g>
</g>
<g>
</g>
<g>
</g>
<g>
</g>
<g>
</g>
<g>
</g>
<g>
</g>
<g>
</g>
<g>
</g>
</svg>
