<?xml version="1.0" encoding="iso-8859-1"?>
<!-- Generator: Adobe Illustrator 19.0.0, SVG Export Plug-In . SVG Version: 6.00 Build 0)  -->
<svg xmlns="http://www.w3.org/2000/svg" xmlns:xlink="http://www.w3.org/1999/xlink" version="1.1" id="Capa_1" x="0px" y="0px" viewBox="0 0 490 490" style="enable-background:new 0 0 490 490;" xml:space="preserve" width="512px" height="512px">
<g>
	<path d="M137.783,300.912L119.45,325.45c0.837,0.613,56.629,41.466,130.53,41.466c37.205,0,79.015-10.363,120.691-41.451   l-18.303-24.554C246.495,379.852,142.179,304.171,137.783,300.912z" fill="#AFABAB"/>
	<path d="M159.739,235.692c23.55,0,42.641-19.092,42.641-42.642c0-10.461-3.913-19.915-10.164-27.334h29.411v-30.625H97.856v30.625   h29.405c-6.251,7.419-10.164,16.873-10.164,27.334C117.097,216.6,136.188,235.692,159.739,235.692z" fill="#AFABAB"/>
	<path d="M268.372,165.716h31.498c-6.251,7.419-10.164,16.873-10.164,27.334c0,23.55,19.092,42.642,42.642,42.642   c23.551,0,42.642-19.092,42.642-42.642c0-10.461-3.913-19.915-10.164-27.334h27.317v-30.625H268.372V165.716z" fill="#AFABAB"/>
	<path d="M420.914,0H69.086C30.999,0,0,30.999,0,69.086v351.829C0,459.001,30.999,490,69.086,490h351.829   C459.001,490,490,459.001,490,420.914V69.086C490,30.999,459.001,0,420.914,0z M459.375,420.914   c0,21.204-17.257,38.461-38.461,38.461H69.086c-21.204,0-38.461-17.257-38.461-38.461V69.086c0-21.204,17.257-38.461,38.461-38.461   h351.829c21.204,0,38.461,17.257,38.461,38.461V420.914z" fill="#AFABAB"/>
</g>
<g>
</g>
<g>
</g>
<g>
</g>
<g>
</g>
<g>
</g>
<g>
</g>
<g>
</g>
<g>
</g>
<g>
</g>
<g>
</g>
<g>
</g>
<g>
</g>
<g>
</g>
<g>
</g>
<g>
</g>
</svg>
